<svg xmlns="http://www.w3.org/2000/svg" width="11.239" height="14.985" viewBox="0 0 11.239 14.985">
  <g id="location-pin" transform="translate(-3)">
    <path id="Path_19" data-name="Path 19" d="M8.619,14.985a.314.314,0,0,1-.207-.078C8.192,14.711,3,10.08,3,5.619a5.619,5.619,0,0,1,11.239,0c0,4.461-5.192,9.092-5.413,9.288A.314.314,0,0,1,8.619,14.985Zm0-14.361A5,5,0,0,0,3.624,5.619c0,3.7,4.028,7.716,4.995,8.628.967-.912,4.995-4.933,4.995-8.628A5,5,0,0,0,8.619.624Z" transform="translate(0)" fill="#243665"/>
    <path id="Path_20" data-name="Path 20" d="M10.122,10.244a3.122,3.122,0,1,1,3.122-3.122A3.125,3.125,0,0,1,10.122,10.244Zm0-5.619a2.5,2.5,0,1,0,2.5,2.5A2.5,2.5,0,0,0,10.122,4.624Z" transform="translate(-1.503 -1.503)" fill="#243665"/>
  </g>
</svg>
